<?xml version="1.0" encoding="UTF-8" standalone="no"?>
<!-- Created with Inkscape (http://www.inkscape.org/) -->

<svg
   xmlns:svg="http://www.w3.org/2000/svg"
   xmlns="http://www.w3.org/2000/svg"
   version="1.1"
   width="260"
   height="410"
   id="svg2">
  <defs
     id="defs6" />
  <g
     transform="translate(370.83714,-19.51167)"
     id="g3596">
    <path
       d="m -241.72865,26.61503 125.03206,42.959734 0,234.034366 -123.74968,119.90254 -122.4673,-118.62016 -1.92357,-235.316746 123.10849,-42.959734 z"
       id="path2818"
       style="fill:#de0000;fill-opacity:1;stroke:#000000;stroke-width:2;stroke-linecap:butt;stroke-linejoin:miter;stroke-miterlimit:4;stroke-opacity:0.49803922;stroke-dasharray:none" />
    <path
       d="m -139.77943,208.713 -0.64119,76.94281 -99.38446,100.02565 -101.30803,-102.59041 0.64119,-196.204155 100.02565,-35.265453 99.38446,35.906643 0.64119,114.131825 -18.59451,29.49474 -80.78995,76.30162 -67.32495,-74.37805 -0.64119,-65.40138 66.68376,67.32496 58.98949,-27.57118 0.64119,-30.77712 20.51808,-14.10618 -1.92357,-55.78353 -76.94281,-30.135936 -81.43113,28.853556 0,163.50346 80.14875,84.63708 81.43114,-80.14875 19.87689,-64.7602 z"
       id="path3592"
       style="fill:#000000;fill-opacity:1;stroke:#7f7f7f;stroke-width:2;stroke-linecap:butt;stroke-linejoin:miter;stroke-miterlimit:4;stroke-opacity:1;stroke-dasharray:none" />
    <path
       d="m -284.04719,126.64068 31.41831,0 11.54142,-36.547835 14.10618,35.265455 32.05951,0 -24.36523,16.02975 12.8238,32.0595 -33.34188,-17.95332 -31.41831,15.38856 11.54142,-26.92998 -24.36522,-17.31213 z"
       id="path3594"
       style="fill:#000000;fill-opacity:1;stroke:#7f7f80;stroke-width:2;stroke-linecap:butt;stroke-linejoin:miter;stroke-miterlimit:4;stroke-opacity:1;stroke-dasharray:none" />
  </g>
  <rect
     width="260"
     height="410"
     x="0"
     y="0"
     id="rect3601"
     style="fill:#000000;fill-opacity:0;stroke:none" />
</svg>
